<mxfile host="app.diagrams.net" modified="2023-07-15T06:45:20.153Z" agent="Mozilla/5.0 (Windows NT 10.0; Win64; x64) AppleWebKit/537.36 (KHTML, like Gecko) Chrome/93.0.4577.63 Safari/537.36 Edg/93.0.961.47" etag="P3vbPQdMa-O-EEv6gtDZ" version="21.6.2" type="github">
  <diagram name="第 1 页" id="mw280LBmdBVTl0aMdUdl">
    <mxGraphModel dx="2117" dy="580" grid="1" gridSize="10" guides="1" tooltips="1" connect="1" arrows="1" fold="1" page="1" pageScale="1" pageWidth="827" pageHeight="1169" math="0" shadow="0">
      <root>
        <mxCell id="0" />
        <mxCell id="1" parent="0" />
        <mxCell id="L9S5XK6A0ePeKa2HYN18-6" style="edgeStyle=orthogonalEdgeStyle;rounded=0;orthogonalLoop=1;jettySize=auto;html=1;" edge="1" parent="1" source="UisDmSwi4ySuJTQzTV7p-13" target="L9S5XK6A0ePeKa2HYN18-4">
          <mxGeometry relative="1" as="geometry" />
        </mxCell>
        <mxCell id="UisDmSwi4ySuJTQzTV7p-13" value="读取Document.xml信息生成FreeCAD草图局部坐标系" style="rounded=0;whiteSpace=wrap;html=1;" parent="1" vertex="1">
          <mxGeometry x="-180" y="350" width="120" height="60" as="geometry" />
        </mxCell>
        <mxCell id="UisDmSwi4ySuJTQzTV7p-16" style="edgeStyle=orthogonalEdgeStyle;rounded=0;orthogonalLoop=1;jettySize=auto;html=1;entryX=0;entryY=0.5;entryDx=0;entryDy=0;" parent="1" source="UisDmSwi4ySuJTQzTV7p-15" target="UisDmSwi4ySuJTQzTV7p-17" edge="1">
          <mxGeometry relative="1" as="geometry">
            <mxPoint x="390" y="380" as="targetPoint" />
          </mxGeometry>
        </mxCell>
        <mxCell id="UisDmSwi4ySuJTQzTV7p-18" value="HFMS草图局部坐标系" style="edgeLabel;html=1;align=center;verticalAlign=middle;resizable=0;points=[];" parent="UisDmSwi4ySuJTQzTV7p-16" vertex="1" connectable="0">
          <mxGeometry x="-0.284" y="1" relative="1" as="geometry">
            <mxPoint x="14" y="-39" as="offset" />
          </mxGeometry>
        </mxCell>
        <mxCell id="UisDmSwi4ySuJTQzTV7p-15" value="世界坐标" style="rounded=0;whiteSpace=wrap;html=1;" parent="1" vertex="1">
          <mxGeometry x="220" y="350" width="120" height="60" as="geometry" />
        </mxCell>
        <mxCell id="L9S5XK6A0ePeKa2HYN18-10" style="edgeStyle=orthogonalEdgeStyle;rounded=0;orthogonalLoop=1;jettySize=auto;html=1;entryX=0;entryY=0.5;entryDx=0;entryDy=0;" edge="1" parent="1" source="UisDmSwi4ySuJTQzTV7p-17" target="L9S5XK6A0ePeKa2HYN18-2">
          <mxGeometry relative="1" as="geometry" />
        </mxCell>
        <mxCell id="UisDmSwi4ySuJTQzTV7p-17" value="HFMS系统草图二维坐标" style="rounded=0;whiteSpace=wrap;html=1;" parent="1" vertex="1">
          <mxGeometry x="440" y="350" width="120" height="60" as="geometry" />
        </mxCell>
        <mxCell id="L9S5XK6A0ePeKa2HYN18-3" style="edgeStyle=orthogonalEdgeStyle;rounded=0;orthogonalLoop=1;jettySize=auto;html=1;entryX=0;entryY=0.5;entryDx=0;entryDy=0;" edge="1" parent="1" source="L9S5XK6A0ePeKa2HYN18-1" target="UisDmSwi4ySuJTQzTV7p-13">
          <mxGeometry relative="1" as="geometry" />
        </mxCell>
        <mxCell id="L9S5XK6A0ePeKa2HYN18-1" value="开始" style="rounded=1;whiteSpace=wrap;html=1;" vertex="1" parent="1">
          <mxGeometry x="-350" y="350" width="120" height="60" as="geometry" />
        </mxCell>
        <mxCell id="L9S5XK6A0ePeKa2HYN18-2" value="结束" style="rounded=1;whiteSpace=wrap;html=1;" vertex="1" parent="1">
          <mxGeometry x="630" y="350" width="120" height="60" as="geometry" />
        </mxCell>
        <mxCell id="L9S5XK6A0ePeKa2HYN18-5" style="edgeStyle=orthogonalEdgeStyle;rounded=0;orthogonalLoop=1;jettySize=auto;html=1;entryX=0;entryY=0.5;entryDx=0;entryDy=0;" edge="1" parent="1" source="L9S5XK6A0ePeKa2HYN18-4" target="UisDmSwi4ySuJTQzTV7p-15">
          <mxGeometry relative="1" as="geometry" />
        </mxCell>
        <mxCell id="L9S5XK6A0ePeKa2HYN18-4" value="FreeCAD草图二维坐标" style="rounded=0;whiteSpace=wrap;html=1;" vertex="1" parent="1">
          <mxGeometry x="-10" y="350" width="120" height="60" as="geometry" />
        </mxCell>
        <mxCell id="L9S5XK6A0ePeKa2HYN18-9" value="FreeCAD草图局部坐标系" style="edgeLabel;html=1;align=center;verticalAlign=middle;resizable=0;points=[];" vertex="1" connectable="0" parent="1">
          <mxGeometry x="170" y="340" as="geometry">
            <mxPoint x="-15" y="-4" as="offset" />
          </mxGeometry>
        </mxCell>
      </root>
    </mxGraphModel>
  </diagram>
</mxfile>
